<?xml version="1.0" encoding="utf-8"?>
<!-- Generator: Adobe Illustrator 25.2.0, SVG Export Plug-In . SVG Version: 6.00 Build 0)  -->
<svg version="1.1" id="Layer_1" xmlns="http://www.w3.org/2000/svg" xmlns:xlink="http://www.w3.org/1999/xlink" x="0px" y="0px"
	 viewBox="0 0 139.7 38.7" style="enable-background:new 0 0 139.7 38.7;" xml:space="preserve">
<style type="text/css">
	.st0{fill-rule:evenodd;clip-rule:evenodd;fill:#54565B;}
	.st1{fill:#54565B;}
	.st2{fill-rule:evenodd;clip-rule:evenodd;fill:#C51F3F;}
	.st3{fill:#7B797D;}
</style>
<path class="st0" d="M44.5,15v5.5c-0.9,0.3-1.8,0.4-2.7,0.4c-3.7,0-6-2.1-6-5.5s2.3-5.5,6.1-5.5c1.2,0,2.5,0.1,3.6,0.6l0.4,0.2
	l0.8-2.1l-0.4-0.2c-1.3-0.5-2.8-0.8-4.2-0.8c-6.3,0-9.2,4-9.2,7.8c-0.1,2.1,0.8,4.1,2.3,5.5c1.5,1.5,3.6,2.3,6.3,2.3
	c1.8,0,3.7-0.3,5.4-1h0.2V15H44.5z"/>
<rect x="51.9" y="7.9" class="st1" width="2.7" height="15.2"/>
<polygon class="st0" points="62.4,20.7 62.4,7.9 59.7,7.9 59.7,23.1 69.4,23.1 69.4,20.7 "/>
<polygon class="st0" points="75.4,20.7 75.4,16.1 82.1,16.1 82.1,13.9 75.4,13.9 75.4,10.1 82.6,10.1 82.6,7.9 72.8,7.9 72.8,23.1 
	82.9,23.1 82.9,20.7 "/>
<path class="st0" d="M92.9,10.9c0.2,0.4,1.5,4.2,1.9,5.3h-4.1C90.7,16.2,92.7,11.3,92.9,10.9 M94.3,7.9h-2.7l-5.8,15.2h2.7l1.7-4.5
	h5.4l1.7,4.5h2.9L94.3,7.9z"/>
<path class="st0" d="M115.6,9.7c-1.6-1.3-4.1-2.1-7.2-2.1h-5v2.3h5c2.3,0,4.1,0.6,5.2,1.5c0.9,1,1.4,2.3,1.4,3.6
	c0.1,1.5-0.5,3.1-1.6,4.2c-1.2,1.1-3.1,1.7-5.4,1.7h-1.9v-7h-2.7V23h0.2c1.4,0.2,2.7,0.2,4.1,0.2c3.3,0,6-1,7.8-2.5
	c1.6-1.5,2.4-3.6,2.3-5.7C117.8,13,117,11.1,115.6,9.7"/>
<path class="st2" d="M24.3,0h-0.2C3.9,1.9,1.4,15.3,8,19.7c-1.2,4.9,0,4.9,0,4.9c0.1-1.5,0.4-2.9,0.8-4.4c2.5-9.7,8.9-18,15.3-20.1
	l0,0C24.3,0.2,24.3,0.2,24.3,0"/>
<path class="st2" d="M23,3.4V3.2l-0.2,0.2c-1.5,3.2-2.2,7.8-3.3,11.2c-1.5,4-4.1,6.8-8.1,6.4v9.8c0,0-10.7-4.7-10.7-12.3V4.3
	l8.7-0.8l0,0c0.2,0,0.2,0,0.2-0.2H0v15.1C0,27,11.4,31.7,11.4,31.7S23,26.8,23,18.5V3.4z"/>
<path class="st3" d="M65.6,35.7c-0.6,0.6-1.5,1-2.4,1c-0.9,0-1.7-0.3-2.3-1C60.3,35,60,34.2,60,33.3c-0.1-1.8,1.2-3.3,3-3.4
	c0.1,0,0.2,0,0.2,0c0.9,0,1.8,0.3,2.4,1l-0.9,0.9c-0.4-0.4-0.9-0.7-1.5-0.7c-1.1,0-1.9,0.9-1.9,1.9c0,0.1,0,0.1,0,0.2
	c-0.1,1.1,0.7,2.1,1.8,2.2c0,0,0.1,0,0.1,0c0.6,0,1.1-0.2,1.4-0.7L65.6,35.7z"/>
<path class="st3" d="M68,32v0.7c0.1-0.2,0.2-0.5,0.4-0.6c0.2-0.1,0.5-0.2,0.7-0.2h0.2v1.3H69c-0.3,0-0.6,0.1-0.8,0.4
	C68,33.8,68,34.1,68,34.4v2.2h-1.2V32H68z"/>
<path class="st3" d="M71.4,34.6c0.1,0.7,0.7,1.1,1.4,1c0.4-0.1,0.7-0.3,0.9-0.6l1.1,0.3c-0.4,0.8-1.2,1.4-2.2,1.4
	c-1.3,0.1-2.4-0.9-2.4-2.2c0-0.1,0-0.1,0-0.2C70,33,71,31.9,72.3,31.9c0.1,0,0.1,0,0.2,0c1.3-0.1,2.4,0.9,2.4,2.2c0,0.1,0,0.1,0,0.2
	v0.2H71.4z M73.6,33.9c-0.1-0.6-0.6-1-1.2-0.9c-0.6,0-1,0.4-1.1,0.9H73.6z"/>
<path class="st3" d="M79.6,32h1.2v4.5h-1.2v-0.6c-0.4,0.5-0.9,0.8-1.5,0.8c-1.2,0-2.2-1-2.2-2.1c0-0.1,0-0.1,0-0.2
	c-0.1-1.3,0.9-2.4,2.1-2.4c0,0,0.1,0,0.1,0c0.6,0,1.1,0.3,1.4,0.7V32z M77.2,34.3c-0.1,0.7,0.5,1.3,1.2,1.4c0,0,0,0,0,0
	c0.7,0,1.3-0.7,1.2-1.4c0,0,0,0,0,0c0.1-0.7-0.4-1.3-1.1-1.4c0,0-0.1,0-0.1,0c-0.7,0-1.2,0.6-1.2,1.3C77.2,34.2,77.2,34.3,77.2,34.3
	z"/>
<path class="st3" d="M83.8,35.2c0,0.2,0.1,0.3,0.3,0.3h0.2v1h-1c-0.6,0-0.8-0.3-0.8-0.8V33H82v-1h0.5v-1.2h1.2V32h0.6v1h-0.6
	L83.8,35.2z"/>
<path class="st3" d="M86.9,30.7c-0.1,0.4-0.5,0.6-0.9,0.5c-0.2-0.1-0.4-0.2-0.5-0.5c-0.1-0.4,0.1-0.8,0.5-0.9
	c0.4-0.1,0.8,0.1,0.9,0.5C87,30.4,87,30.6,86.9,30.7z M86.9,36.5h-1.2V32h1.2V36.5z"/>
<path class="st3" d="M89.6,32v0.6c0.2-0.5,0.7-0.7,1.2-0.7c0.4,0,0.8,0.1,1.1,0.4c0.3,0.4,0.5,0.9,0.4,1.4v2.8h-1.2v-2.8
	c0-0.2,0-0.4-0.1-0.5c-0.1-0.2-0.4-0.3-0.6-0.3c-0.4,0-0.8,0.4-0.8,0.8c0,0,0,0.1,0,0.1v2.7h-1.2V32H89.6z"/>
<path class="st3" d="M97.3,32h1.2v4.2c0.1,0.7-0.1,1.4-0.6,1.9c-0.5,0.5-1.2,0.7-1.9,0.7c-0.8,0-1.6-0.3-2.2-0.9l0.8-0.8
	c0.3,0.4,0.9,0.6,1.4,0.6c0.7,0.1,1.2-0.4,1.3-1.1c0-0.1,0-0.2,0-0.2v-0.5c-0.4,0.5-1,0.8-1.6,0.8c-1.2,0-2.2-1-2.2-2.1
	c0-0.1,0-0.1,0-0.2c-0.1-1.2,0.8-2.3,2-2.4c0.1,0,0.2,0,0.3,0c0.6,0,1.1,0.3,1.4,0.7L97.3,32z M94.9,34.2c-0.1,0.7,0.4,1.3,1.1,1.3
	c0.4,0,0.8-0.1,1.1-0.4c0.2-0.2,0.2-0.5,0.2-0.8c0-0.4-0.1-0.8-0.3-1.1c-0.2-0.2-0.5-0.3-0.8-0.4c-0.7,0-1.2,0.5-1.2,1.2
	C94.9,34.2,94.9,34.2,94.9,34.2z"/>
<path class="st3" d="M104.3,36.5H103V30h2.1c1.5,0,2.4,0.7,2.4,2.1c0,1.2-0.8,2.1-2,2.2c-0.1,0-0.2,0-0.3,0h-0.8V36.5z M104.9,33.2
	c0.8,0,1.2-0.4,1.2-1c0-0.6-0.5-1-1-1.1c-0.1,0-0.1,0-0.2,0h-0.6v2.1H104.9z"/>
<path class="st3" d="M112.9,34.3c0,1.3-1.1,2.4-2.4,2.4c0,0,0,0-0.1,0c-1.3,0-2.4-1.1-2.4-2.4s1.1-2.4,2.4-2.4
	c1.3-0.1,2.4,0.9,2.5,2.2C112.9,34.2,112.9,34.2,112.9,34.3z M109.3,34.3c-0.1,0.7,0.4,1.2,1.1,1.3c0.7,0.1,1.2-0.4,1.3-1.1
	c0-0.1,0-0.1,0-0.2c0.1-0.6-0.4-1.2-1-1.3c-0.1,0-0.1,0-0.2,0c-0.7,0-1.2,0.5-1.2,1.2C109.3,34.2,109.3,34.2,109.3,34.3z"/>
<path class="st3" d="M116.2,33.3L116.2,33.3c0-0.3-0.2-0.5-0.6-0.5c-0.3,0-0.5,0.2-0.5,0.4c0,0.1,0,0.2,0.1,0.3
	c0.1,0.1,0.2,0.1,0.8,0.3c1,0.3,1.4,0.7,1.4,1.4c0,0.9-0.7,1.4-1.7,1.4c-0.8,0.1-1.6-0.5-1.8-1.3c0,0,0-0.1,0-0.1h1.2
	c0.1,0.4,0.2,0.6,0.6,0.6c0.2,0,0.5-0.1,0.5-0.4c0,0,0,0,0,0c0-0.3-0.2-0.4-0.8-0.6c-1-0.3-1.4-0.7-1.4-1.4c0-0.9,0.7-1.4,1.7-1.4
	c0.8-0.1,1.6,0.5,1.7,1.3c0,0.1,0,0.1,0,0.2L116.2,33.3z"/>
<path class="st3" d="M120.7,33.3L120.7,33.3c0-0.4-0.3-0.6-0.6-0.5c0,0,0,0,0,0c-0.3,0-0.5,0.2-0.5,0.4c0,0.1,0,0.2,0.1,0.3
	c0.1,0.1,0.1,0.1,0.8,0.3c1,0.3,1.4,0.7,1.4,1.4c0,0.9-0.7,1.4-1.7,1.4c-0.8,0.1-1.6-0.5-1.8-1.3c0,0,0-0.1,0-0.1h1.2
	c0.1,0.4,0.2,0.6,0.6,0.6c0.2,0,0.5-0.1,0.5-0.4c0,0,0,0,0,0c0-0.3-0.2-0.4-0.8-0.6c-1-0.3-1.4-0.7-1.4-1.4c0-0.9,0.7-1.4,1.7-1.4
	c0.8-0.1,1.5,0.4,1.7,1.2c0,0.1,0,0.2,0,0.3L120.7,33.3z"/>
<path class="st3" d="M124.6,30.7c-0.1,0.4-0.5,0.6-0.9,0.5c-0.2-0.1-0.4-0.2-0.5-0.5c-0.1-0.4,0.1-0.8,0.5-0.9
	c0.4-0.1,0.8,0.1,0.9,0.5C124.6,30.5,124.6,30.6,124.6,30.7z M124.5,36.5h-1.2V32h1.2V36.5z"/>
<path class="st3" d="M127.3,36.5h-1.2V30h1.2v2.5c0.3-0.5,0.9-0.7,1.4-0.7c1.2,0,2.3,1,2.3,2.2c0,0.1,0,0.1,0,0.2
	c0.1,1.2-0.7,2.2-1.9,2.4c-0.1,0-0.2,0-0.3,0c-0.6,0-1.2-0.2-1.5-0.7L127.3,36.5z M127.3,34.3c-0.1,0.7,0.4,1.3,1.1,1.3
	c0.7,0.1,1.3-0.4,1.3-1.1c0-0.1,0-0.2,0-0.3c0.1-0.7-0.5-1.3-1.2-1.4c0,0,0,0,0,0C127.8,32.9,127.2,33.6,127.3,34.3
	C127.3,34.3,127.3,34.3,127.3,34.3L127.3,34.3z"/>
<path class="st3" d="M132.3,36.5V30h1.2v6.5H132.3z"/>
<path class="st3" d="M136.1,34.6c0.1,0.7,0.7,1.1,1.4,1c0.4-0.1,0.7-0.3,0.9-0.6l1.1,0.3c-0.4,0.8-1.2,1.4-2.2,1.4
	c-1.3,0.1-2.4-0.9-2.4-2.2c0-0.1,0-0.1,0-0.2c-0.1-1.3,0.9-2.3,2.2-2.4c0.1,0,0.1,0,0.2,0c1.3-0.1,2.4,0.9,2.4,2.2
	c0,0.1,0,0.1,0,0.2v0.2H136.1z M138.4,33.9c-0.1-0.6-0.6-1-1.1-0.9c-0.6,0-1,0.4-1.1,0.9H138.4z"/>
</svg>
